<svg xmlns="http://www.w3.org/2000/svg" xmlns:xlink="http://www.w3.org/1999/xlink" width="1024" zoomAndPan="magnify" viewBox="0 0 768 767.999994" height="1024" preserveAspectRatio="xMidYMid meet" version="1.2"><g id="b2ab318b73"><path style=" stroke:none;fill-rule:nonzero;fill:#000000;fill-opacity:1;" d="M 301.542969 104.476562 C 348.503906 85.414062 398.667969 86.695312 442.261719 104.1875 C 410.742188 99.855469 377.695312 103.46875 346.097656 116.296875 C 249.871094 155.355469 203.523438 265.023438 242.582031 361.25 C 262.578125 410.515625 301.082031 446.703125 346.816406 465.054688 C 282.34375 456.1875 224.257812 414.058594 198.023438 349.429688 C 158.96875 253.199219 205.3125 143.53125 301.542969 104.476562 Z M 276.851562 228.085938 C 249.699219 292.335938 260.980469 363.199219 300.300781 415.054688 C 280.941406 369.742188 279.300781 316.925781 300 267.953125 C 340.425781 172.292969 450.746094 127.519531 546.40625 167.945312 C 577.816406 181.21875 603.742188 202.03125 622.964844 227.382812 C 604.507812 184.1875 569.945312 147.808594 523.257812 128.082031 C 427.597656 87.652344 317.277344 132.425781 276.851562 228.085938 Z M 663.339844 301.542969 C 624.28125 205.3125 514.613281 158.964844 418.386719 198.023438 C 353.753906 224.257812 311.628906 282.34375 302.761719 346.816406 C 321.113281 301.082031 357.300781 262.578125 406.5625 242.582031 C 502.792969 203.523438 612.460938 249.871094 651.519531 346.097656 C 664.339844 377.695312 667.960938 410.742188 663.625 442.261719 C 681.117188 398.667969 682.402344 348.503906 663.339844 301.542969 Z M 539.726562 276.851562 C 475.476562 249.699219 404.617188 260.980469 352.757812 300.300781 C 398.074219 280.941406 450.886719 279.300781 499.859375 300 C 595.519531 340.425781 640.296875 450.746094 599.871094 546.40625 C 586.59375 577.816406 565.785156 603.742188 540.433594 622.964844 C 583.625 604.507812 620.003906 569.945312 639.734375 523.257812 C 680.164062 427.597656 635.386719 317.277344 539.726562 276.851562 Z M 569.789062 418.386719 C 543.558594 353.757812 485.472656 311.632812 421 302.765625 C 466.734375 321.117188 505.238281 357.304688 525.234375 406.566406 C 564.289062 502.792969 517.945312 612.464844 421.714844 651.519531 C 390.121094 664.34375 357.074219 667.960938 325.550781 663.628906 C 369.148438 681.121094 419.3125 682.402344 466.273438 663.34375 C 562.5 624.285156 608.84375 514.617188 569.789062 418.386719 Z M 490.964844 539.726562 C 518.117188 475.476562 506.832031 404.617188 467.511719 352.757812 C 486.875 398.074219 488.511719 450.886719 467.816406 499.859375 C 427.390625 595.519531 317.070312 640.296875 221.410156 599.871094 C 190 586.59375 164.074219 565.785156 144.851562 540.433594 C 163.308594 583.625 197.871094 620.003906 244.558594 639.734375 C 340.21875 680.164062 450.539062 635.386719 490.964844 539.726562 Z M 349.425781 569.789062 C 414.058594 543.558594 456.183594 485.472656 465.050781 421 C 446.699219 466.734375 410.511719 505.238281 361.246094 525.234375 C 265.019531 564.289062 155.351562 517.945312 116.292969 421.714844 C 103.46875 390.121094 99.851562 357.074219 104.1875 325.550781 C 86.695312 369.148438 85.410156 419.3125 104.472656 466.273438 C 143.53125 562.5 253.199219 608.84375 349.425781 569.789062 Z M 228.085938 490.964844 C 292.335938 518.117188 363.199219 506.832031 415.054688 467.511719 C 369.742188 486.875 316.925781 488.511719 267.953125 467.816406 C 172.292969 427.390625 127.519531 317.070312 167.945312 221.410156 C 181.21875 190 202.03125 164.074219 227.382812 144.851562 C 184.1875 163.308594 147.808594 197.871094 128.082031 244.558594 C 87.652344 340.21875 132.425781 450.539062 228.085938 490.964844 Z M 383.90625 453.253906 C 391.203125 397.113281 397.117188 391.203125 453.253906 383.90625 C 397.113281 376.613281 391.203125 370.695312 383.90625 314.558594 C 376.613281 370.699219 370.695312 376.613281 314.558594 383.90625 C 370.695312 391.203125 376.613281 397.117188 383.90625 453.253906 Z M 383.90625 453.253906 "/></g></svg>