<!--?xml version="1.0" encoding="utf-8"?-->
<!-- Generator: Adobe Illustrator 21.1.0, SVG Export Plug-In . SVG Version: 6.00 Build 0)  -->
<svg version="1.1" id="_x31_0" xmlns="http://www.w3.org/2000/svg" xmlns:xlink="http://www.w3.org/1999/xlink" x="0px" y="0px" viewBox="0 0 512 512" style="width: 256px; height: 256px; opacity: 1;" xml:space="preserve">
<style type="text/css">
	.st0{fill:#374149;}
</style>
<g>
	<path class="st0" d="M356.301,428.794l-0.396-2.756l-0.63-1.968c-0.188-0.638-0.987-3.102-2.402-6.758
		c-0.307-0.846-0.614-1.691-0.987-2.663c-0.008,0.026-0.023,0.054-0.031,0.08c-0.015-0.038-0.026-0.065-0.042-0.103
		c-0.63,1.81-1.414,3.698-2.202,5.508c-1.968,4.643-6.142,7.872-11.101,8.66c-0.788,0.081-1.576,0.158-2.36,0.158
		c-4.174,0-8.11-1.734-10.866-4.882c-29.124-33.218-90.529-75.334-129.101-81.95c-31.723-5.508-49.908,0.63-57.546,4.49
		c-2.914,2.756-7.476,6.926-10.624,9.682c-12.362,11.02-27.714,24.719-37.239,36.997c-8.264,10.628-16.609,26.53-22.905,43.692
		c-5.039,13.542-10.705,33.141-9.21,49.358L61.018,512l25.665-2.283c4.17-0.392,19.442-1.022,75.411-1.022
		c64.63,0,149.097,0.869,173.424,1.103l25.984,0.269l4.402,0.058l-0.004-0.011h0.081L356.301,428.794z" style="fill: rgb(58, 171, 210);"></path>
	<path class="st0" d="M450.92,195.072c-4.958-14.33-17.24-28.182-26.211-38.338l-1.495-1.576
		c7.872-17.239,0.784-38.258-2.441-45.972c-0.238-0.865-0.554-4.409-0.711-6.296c-0.473-5.274-1.18-12.515-2.99-21.49l-0.234-1.103
		c-9.367-37.235-51.564-61.874-87.854-72.502C311.744,2.756,289.624,0,266.714,0c-29.282,0-56.442,4.647-76.357,12.992
		c-20.864,8.656-39.441,24.4-53.924,45.499c-12.988,19.05-21.886,41.17-25.665,64.079c-5.666,34.245,4.174,66.913,28.421,94.385
		c7.399,8.425,21.963,32.514,23.774,52.902c0.707,7.872,0.473,16.136-0.788,24.796c-6.458,5.039-10.786,12.204-12.988,21.414
		l-0.554,3.382c-0.558,5.696-1.734,10.658-3.082,14.683c-0.189,0.518-0.381,1.099-0.562,1.538c0.015-0.004,0.034-0.008,0.054-0.016
		c-0.011,0.031-0.019,0.062-0.03,0.093c7.53-2.33,18.085-4.044,31.838-3.563c1.545,0.054,3.094,0.107,4.682,0.219
		c2.022,0.138,4.113,0.326,6.265,0.569c1.23,0.134,2.483,0.322,3.729,0.488c1.972,0.265,3.921,0.515,5.993,0.869
		c40.148,6.926,103.678,50.303,133.667,84.544c0.45,0.496,1.03,0.73,1.565,1.065c0.273,0.173,0.511,0.415,0.799,0.542
		c0.523,0.231,1.088,0.277,1.661,0.358c0.292,0.042,0.557,0.185,0.857,0.185c0.23,0,0.469-0.034,0.703-0.058
		c0.166-0.019,0.308,0.065,0.477,0.038c2.283-0.396,4.251-1.891,5.116-3.936c1.891-4.409,3.625-8.741,5.12-12.754
		c-3.071-6.85-7.165-14.96-12.362-23.617c4.962-9.682,11.101-21.571,17.082-32.983c14.802,2.279,28.183,2.279,40.779,0
		c14.487-2.679,26.134-11.808,32.826-25.822c5.827-12.2,7.322-27.003,4.017-39.203c6.85-7.48,8.502-15.037,8.579-20.468
		c1.495-2.518,2.598-5.193,3.229-7.949c1.338-5.431,1.022-11.178-0.788-16.609c2.361-1.968,4.329-4.174,6.062-6.615
		C451.078,225.223,457.14,212.784,450.92,195.072z M425.274,216.866c-0.588,0.673-1.253,1.272-2.002,1.776
		c-0.019,0.015-0.046,0.026-0.066,0.038c-2.39,1.587-5.519,2.368-8.89,2.368c-0.526,0-1.076-0.054-1.626-0.097
		c-0.33-0.042-0.685-0.026-0.984-0.103c0.011,0.015,0.011,0.034,0.019,0.046c-0.027,0-0.058,0-0.085-0.003
		c3.936,6.219-3.544,18.423,1.734,21.414c2.675,1.495,3.54,4.328,3.225,5.823c-0.63,2.364-4.251,5.354-9.682,5.354
		c-1.161,0-2.414-0.185-3.682-0.473c-0.442-0.123-0.895-0.204-1.314-0.381l0.185,0.119c-0.078-0.023-0.15-0.026-0.227-0.054
		c5.962,3.944,9.682,6.034,10.524,8.23c0.027,0.077,0.074,0.154,0.097,0.23c0.096,0.342,0.084,0.692,0.042,1.05
		c-0.022,0.196-0.081,0.4-0.15,0.603c-0.292,0.873-0.93,1.818-2.087,2.956c-3.306,3.386-6.692,3.855-9.606,3.855
		c-1.338,0-2.675-0.077-3.778-0.077c-0.788,0-1.495,0.077-2.045,0.234c-3.463,1.026,2.594,5.039,8.971,16.847
		c3.218,5.858,2.671,20.446-4.566,29.144c-0.269,0.326-0.526,0.65-0.822,0.965c-0.5,0.534-1.034,1.034-1.595,1.51
		c-0.819,0.699-1.706,1.361-2.698,1.934c-0.519,0.296-1.095,0.518-1.657,0.769c-0.93,0.418-1.937,0.757-3.01,1.026
		c-0.392,0.096-0.75,0.238-1.157,0.315c-5.039,0.942-9.998,1.338-15.037,1.338c-12.123,0-23.932-2.364-34.952-5.12
		c-5.911,11.274-12.858,24.63-19.146,36.815c-0.922,1.765-1.868,3.575-2.76,5.274c-8.814-11.09-19.434-21.864-32.095-30.593
		c-42.59-29.521-65.89-40.464-85.886-40.464c-1.573,0-3.148,0.077-4.644,0.158c-1.338,0.158-2.598,0.234-3.778,0.392
		c-0.473,0-0.946,0.081-1.418,0.081c0.396-4.724,0.63-9.84,0.473-15.194l19.915-4.013l1.81-3.859
		c1.814-4.013,17.635-39.752,11.654-62.504c-0.473-1.81-0.946-3.621-1.499-5.431c-4.566-17.005-7.949-29.286-0.077-42.823
		c2.36-4.094,5.823-6.773,10.39-7.953c3.425-0.865,7.318-0.846,11.401,0.011c0,0,0.007,0,0.015,0
		c4.078,0.858,8.345,2.549,12.515,5.028c16.455,9.763,18.973,37.315,18.973,37.55l0.393,4.801l24.858,11.82l11.985,5.738
		l-0.004-0.042l0.081,0.038l-1.022-14.406c0-0.234-1.887-27.394,0.238-40.698c0.865-5.666,2.91-7.242,7.791-11.02
		c3.463-2.675,7.795-6.062,12.042-11.57c6.692-8.66,13.776-26.057,14.802-49.83c21.41-2.994,42.432,1.414,46.76,2.437
		c0.334,1.734,0.607,3.375,0.846,4.951c0.026,0.177,0.058,0.357,0.085,0.534c1.71,11.547,1.295,19.115,3.555,24.589
		c2.756,6.454,6.377,19.127,3.071,26.134c-3.229,7.084-5.904,14.956-0.865,21.806c5.116,6.85,23.22,24.17,27.786,37.315
		c1.526,4.432,1.461,7.987,0.311,10.705c-0.019,0.05-0.054,0.1-0.073,0.15c-0.377,0.846-0.85,1.614-1.422,2.294
		C425.371,216.774,425.316,216.82,425.274,216.866z M152.896,192.958c-0.599-0.807-1.21-1.672-1.83-2.557
		c-1.36-1.968-2.64-3.958-3.832-5.973c-0.407-0.688-0.818-1.357-1.222-2.076c-1.242-2.226-2.352-4.482-3.386-6.757
		c-0.3-0.666-0.615-1.299-0.907-1.98c-0.972-2.294-1.802-4.624-2.567-6.965c-0.262-0.799-0.534-1.587-0.777-2.414
		c-0.68-2.314-1.234-4.651-1.71-7.004c-0.204-1.022-0.384-2.064-0.554-3.113c-0.307-1.895-0.534-3.806-0.711-5.72
		c-0.146-1.657-0.23-3.348-0.28-5.07c-0.042-1.414-0.062-2.837-0.031-4.263c0.034-1.534,0.096-3.082,0.219-4.666
		c0.073-1.01,0.211-2.026,0.323-3.04c0.169-1.503,0.311-2.994,0.565-4.54c2.71-16.394,8.741-32.872,17.505-47.44
		c0.054-0.088,0.103-0.18,0.158-0.269c0.995-1.645,2.052-3.252,3.117-4.843c0.389-0.577,0.762-1.161,1.154-1.726
		c0.791-1.146,1.626-2.253,2.456-3.363c0.692-0.93,1.38-1.872,2.098-2.775c0.615-0.781,1.261-1.53,1.895-2.291
		c0.942-1.13,1.88-2.256,2.852-3.337c0.534-0.591,1.092-1.161,1.638-1.741c1.073-1.138,2.149-2.272,3.256-3.356
		c0.638-0.622,1.299-1.21,1.952-1.814c1.007-0.938,2.014-1.876,3.052-2.764c1.088-0.93,2.21-1.81,3.337-2.687
		c0.603-0.476,1.199-0.972,1.814-1.43c5.546-4.113,11.489-7.576,17.797-10.221c18.266-7.638,42.746-10.943,66.439-10.943
		c20.469,0,40.387,2.518,55.028,6.769c15.994,4.662,34.648,13.134,48.85,24.546c4.682,3.782,8.902,7.903,12.385,12.362
		c-12.046-1.645-30.027-2.814-47.698,1.034l-6.692,1.418l0.081,6.85c0.158,23.22-6.062,39.594-11.416,46.602
		c-2.99,3.778-5.904,6.062-9.052,8.502c-5.746,4.486-12.2,9.526-14.168,21.726c-1.103,7.314-1.226,17.62-1.08,26.541
		c0.007,1.265,0,2.418,0.022,3.748l-2.644-1.318c-1.73-10.39-7.634-34.402-26.526-45.657c-12.362-7.322-25.35-9.763-36.685-6.85
		c-8.975,2.361-16.14,7.792-20.783,15.822c-11.335,19.603-6.611,37.077-1.572,55.658c0.469,1.73,0.942,3.54,1.495,5.35
		c3.306,12.677-4.332,35.663-9.056,47.314l-9.918,1.968c-5.197-25.111-20.783-49.282-28.732-58.253
		c-0.43-0.492-0.903-1.049-1.376-1.61C155.679,196.571,154.241,194.78,152.896,192.958z" style="fill: rgb(58, 171, 210);"></path>
	<path class="st0" d="M262.782,222.663l-3.29-4.302c0.95-0.484,1.876-1.076,2.779-1.772c4.816-3.706,6.938-10.494,7.311-15.567
		c0.138-1.883-0.45-3.748-1.603-5.243l-5.604-7.28c-1.311-1.706-3.263-2.794-5.401-3.014l-0.418-0.046
		c-3.506-0.362-10.029-1.038-15.841,3.436c-7.676,5.908-9.809,12.996-6.926,22.986c1.595,5.524,4.932,9.786,10.455,16.847
		c1.069,1.365,2.218,2.837,3.459,4.447l18.9,24.554c0.4,0.519,1.142,0.615,1.661,0.215l0.972-0.746
		c0.489,0.234,1.034,0.181,1.557,0.277c0.354,0.066,0.681,0.238,1.038,0.238c0.054,0,0.099-0.027,0.154-0.027
		c0.369-0.011,0.692-0.096,1.057-0.173c0.634-0.134,1.226-0.369,1.787-0.711c0.196-0.115,0.434-0.104,0.619-0.242l2.302-1.775
		c1.81-1.392,2.629-3.663,2.206-5.843l0.972-0.746c0.519-0.399,0.619-1.145,0.219-1.66L262.782,222.663z" style="fill: rgb(58, 171, 210);"></path>
</g>
</svg>
