<svg xmlns="http://www.w3.org/2000/svg" xmlns:xlink="http://www.w3.org/1999/xlink" width="1024" zoomAndPan="magnify" viewBox="0 0 768 767.999994" height="1024" preserveAspectRatio="xMidYMid meet" version="1.2"><defs><clipPath id="0a307aea28"><path d="M 68.566406 150.890625 L 691 150.890625 L 691 592.640625 L 68.566406 592.640625 Z M 68.566406 150.890625 "/></clipPath></defs><g id="1a457db77a"><path style=" stroke:none;fill-rule:nonzero;fill:#000000;fill-opacity:1;" d="M 377.8125 492.773438 C 376.476562 492.78125 375.195312 492.535156 373.960938 492.03125 C 372.726562 491.527344 371.636719 490.804688 370.6875 489.867188 L 309.59375 428.773438 C 307.21875 426.390625 305.101562 423.804688 303.238281 421.007812 C 301.371094 418.210938 299.800781 415.257812 298.515625 412.152344 C 297.234375 409.042969 296.269531 405.84375 295.617188 402.542969 C 294.964844 399.246094 294.640625 395.917969 294.648438 392.558594 C 294.648438 390.882812 294.730469 389.210938 294.894531 387.546875 C 295.058594 385.878906 295.304688 384.226562 295.628906 382.582031 C 295.957031 380.941406 296.363281 379.320312 296.851562 377.714844 C 297.339844 376.113281 297.902344 374.539062 298.542969 372.992188 C 299.183594 371.445312 299.902344 369.933594 300.691406 368.457031 C 301.480469 366.980469 302.34375 365.546875 303.273438 364.15625 C 304.203125 362.765625 305.203125 361.421875 306.265625 360.128906 C 307.328125 358.835938 308.453125 357.597656 309.636719 356.414062 C 310.824219 355.230469 312.0625 354.109375 313.359375 353.050781 C 314.65625 351.988281 316 350.992188 317.394531 350.066406 C 318.785156 349.136719 320.222656 348.277344 321.699219 347.492188 C 323.175781 346.703125 324.691406 345.992188 326.238281 345.351562 C 327.785156 344.714844 329.363281 344.152344 330.964844 343.667969 C 332.566406 343.1875 334.191406 342.78125 335.832031 342.457031 C 337.476562 342.136719 339.132812 341.890625 340.796875 341.730469 C 342.464844 341.570312 344.136719 341.492188 345.808594 341.496094 C 348.699219 341.496094 351.566406 341.734375 354.410156 342.222656 C 357.257812 342.707031 360.042969 343.425781 362.769531 344.382812 C 365.492188 345.339844 368.117188 346.519531 370.644531 347.921875 C 373.167969 349.320312 375.558594 350.925781 377.8125 352.730469 C 379.027344 351.757812 380.285156 350.839844 381.585938 349.980469 C 382.886719 349.121094 384.226562 348.324219 385.597656 347.585938 C 386.972656 346.847656 388.375 346.175781 389.8125 345.566406 C 391.246094 344.957031 392.707031 344.414062 394.191406 343.9375 C 395.675781 343.460938 397.175781 343.054688 398.699219 342.714844 C 400.222656 342.378906 401.753906 342.109375 403.300781 341.910156 C 404.847656 341.710938 406.398438 341.582031 407.957031 341.527344 C 409.515625 341.46875 411.070312 341.480469 412.628906 341.566406 C 414.183594 341.652344 415.734375 341.804688 417.277344 342.03125 C 418.820312 342.257812 420.347656 342.554688 421.863281 342.921875 C 423.378906 343.285156 424.875 343.71875 426.347656 344.222656 C 427.824219 344.722656 429.273438 345.292969 430.699219 345.925781 C 432.121094 346.558594 433.515625 347.257812 434.875 348.019531 C 436.234375 348.78125 437.558594 349.601562 438.84375 350.484375 C 440.128906 351.363281 441.371094 352.304688 442.570312 353.296875 C 443.769531 354.292969 444.921875 355.34375 446.027344 356.441406 C 447.207031 357.628906 448.328125 358.871094 449.386719 360.164062 C 450.449219 361.460938 451.441406 362.808594 452.367188 364.199219 C 453.296875 365.59375 454.152344 367.03125 454.941406 368.507812 C 455.726562 369.984375 456.441406 371.496094 457.078125 373.042969 C 457.71875 374.589844 458.28125 376.167969 458.765625 377.769531 C 459.25 379.371094 459.652344 380.992188 459.980469 382.636719 C 460.304688 384.277344 460.550781 385.929688 460.714844 387.597656 C 460.878906 389.261719 460.957031 390.933594 460.957031 392.605469 C 460.957031 394.28125 460.878906 395.949219 460.714844 397.617188 C 460.550781 399.28125 460.304688 400.9375 459.980469 402.578125 C 459.652344 404.222656 459.25 405.84375 458.765625 407.445312 C 458.28125 409.046875 457.71875 410.621094 457.078125 412.167969 C 456.441406 413.71875 455.726562 415.230469 454.941406 416.707031 C 454.152344 418.183594 453.296875 419.621094 452.367188 421.011719 C 451.441406 422.40625 450.449219 423.75 449.386719 425.046875 C 448.328125 426.34375 447.207031 427.585938 446.027344 428.773438 L 384.933594 489.867188 C 383.988281 490.804688 382.898438 491.527344 381.664062 492.03125 C 380.429688 492.535156 379.144531 492.78125 377.8125 492.773438 Z M 345.808594 361.558594 C 344.28125 361.554688 342.761719 361.660156 341.25 361.878906 C 339.738281 362.101562 338.25 362.429688 336.785156 362.871094 C 335.324219 363.308594 333.898438 363.855469 332.515625 364.503906 C 331.132812 365.15625 329.808594 365.902344 328.535156 366.75 C 327.261719 367.597656 326.058594 368.53125 324.925781 369.554688 C 323.792969 370.582031 322.738281 371.683594 321.769531 372.863281 C 320.796875 374.042969 319.917969 375.289062 319.132812 376.597656 C 318.347656 377.910156 317.660156 379.269531 317.074219 380.679688 C 316.488281 382.09375 316.011719 383.539062 315.640625 385.019531 C 315.269531 386.503906 315.007812 388.003906 314.859375 389.523438 C 314.707031 391.046875 314.671875 392.570312 314.746094 394.09375 C 314.824219 395.621094 315.011719 397.132812 315.3125 398.632812 C 315.609375 400.128906 316.019531 401.597656 316.535156 403.035156 C 317.050781 404.476562 317.671875 405.867188 318.394531 407.214844 C 319.117188 408.558594 319.933594 409.847656 320.847656 411.070312 C 321.757812 412.296875 322.757812 413.449219 323.839844 414.527344 L 377.8125 468.597656 L 431.78125 414.527344 C 432.5 413.808594 433.179688 413.058594 433.824219 412.273438 C 434.46875 411.488281 435.074219 410.671875 435.636719 409.828125 C 436.203125 408.984375 436.722656 408.113281 437.203125 407.21875 C 437.679688 406.324219 438.113281 405.40625 438.503906 404.46875 C 438.890625 403.53125 439.234375 402.578125 439.527344 401.605469 C 439.820312 400.632812 440.066406 399.648438 440.265625 398.65625 C 440.464844 397.660156 440.613281 396.65625 440.710938 395.644531 C 440.8125 394.636719 440.863281 393.621094 440.863281 392.605469 C 440.863281 391.589844 440.8125 390.578125 440.710938 389.570312 C 440.613281 388.558594 440.464844 387.554688 440.265625 386.558594 C 440.066406 385.5625 439.820312 384.578125 439.527344 383.609375 C 439.234375 382.636719 438.890625 381.683594 438.503906 380.742188 C 438.113281 379.804688 437.679688 378.890625 437.203125 377.992188 C 436.722656 377.097656 436.203125 376.230469 435.636719 375.386719 C 435.074219 374.539062 434.46875 373.726562 433.824219 372.941406 C 433.179688 372.15625 432.5 371.40625 431.78125 370.6875 C 431.050781 369.992188 430.285156 369.332031 429.492188 368.707031 C 428.695312 368.085938 427.871094 367.5 427.019531 366.957031 C 426.171875 366.410156 425.296875 365.90625 424.394531 365.445312 C 423.496094 364.984375 422.578125 364.566406 421.640625 364.191406 C 420.703125 363.816406 419.746094 363.488281 418.777344 363.203125 C 417.808594 362.917969 416.828125 362.679688 415.835938 362.492188 C 414.84375 362.300781 413.84375 362.15625 412.835938 362.058594 C 411.832031 361.964844 410.824219 361.917969 409.8125 361.917969 C 408.800781 361.917969 407.792969 361.964844 406.789062 362.058594 C 405.78125 362.15625 404.78125 362.300781 403.789062 362.492188 C 402.796875 362.679688 401.816406 362.917969 400.847656 363.203125 C 399.878906 363.488281 398.921875 363.816406 397.984375 364.191406 C 397.046875 364.566406 396.128906 364.984375 395.230469 365.445312 C 394.332031 365.90625 393.457031 366.410156 392.605469 366.957031 C 391.753906 367.5 390.929688 368.085938 390.136719 368.707031 C 389.339844 369.332031 388.574219 369.992188 387.84375 370.6875 L 384.832031 373.695312 C 384.367188 374.167969 383.859375 374.585938 383.308594 374.957031 C 382.761719 375.324219 382.179688 375.636719 381.570312 375.894531 C 380.957031 376.148438 380.328125 376.339844 379.679688 376.46875 C 379.027344 376.597656 378.371094 376.664062 377.710938 376.664062 C 377.046875 376.664062 376.394531 376.597656 375.742188 376.46875 C 375.09375 376.339844 374.464844 376.148438 373.851562 375.894531 C 373.242188 375.636719 372.660156 375.324219 372.113281 374.957031 C 371.5625 374.585938 371.054688 374.167969 370.589844 373.695312 L 367.578125 370.6875 C 366.152344 369.25 364.601562 367.960938 362.921875 366.828125 C 361.246094 365.695312 359.472656 364.738281 357.601562 363.953125 C 355.734375 363.171875 353.808594 362.578125 351.824219 362.175781 C 349.839844 361.773438 347.835938 361.566406 345.808594 361.558594 Z M 345.808594 361.558594 "/><g clip-rule="nonzero" clip-path="url(#0a307aea28)"><path style=" stroke:none;fill-rule:nonzero;fill:#000000;fill-opacity:1;" d="M 640.644531 592.289062 L 118.988281 592.289062 C 117.347656 592.289062 115.707031 592.210938 114.074219 592.050781 C 112.4375 591.886719 110.816406 591.648438 109.203125 591.328125 C 107.59375 591.007812 106 590.609375 104.429688 590.128906 C 102.855469 589.652344 101.3125 589.101562 99.792969 588.472656 C 98.277344 587.84375 96.792969 587.140625 95.34375 586.367188 C 93.894531 585.59375 92.488281 584.75 91.121094 583.835938 C 89.757812 582.925781 88.4375 581.945312 87.167969 580.90625 C 85.898438 579.863281 84.683594 578.761719 83.523438 577.597656 C 82.359375 576.4375 81.257812 575.222656 80.214844 573.953125 C 79.175781 572.683594 78.195312 571.363281 77.285156 570 C 76.371094 568.632812 75.527344 567.226562 74.753906 565.777344 C 73.980469 564.328125 73.277344 562.84375 72.648438 561.328125 C 72.019531 559.808594 71.46875 558.265625 70.992188 556.691406 C 70.511719 555.121094 70.113281 553.527344 69.792969 551.917969 C 69.472656 550.304688 69.234375 548.683594 69.070312 547.046875 C 68.910156 545.414062 68.832031 543.773438 68.832031 542.132812 L 68.832031 281.304688 C 68.832031 279.660156 68.910156 278.023438 69.070312 276.386719 C 69.234375 274.753906 69.472656 273.128906 69.792969 271.519531 C 70.113281 269.90625 70.511719 268.316406 70.992188 266.742188 C 71.46875 265.171875 72.019531 263.625 72.648438 262.109375 C 73.277344 260.589844 73.980469 259.109375 74.753906 257.660156 C 75.527344 256.210938 76.371094 254.800781 77.285156 253.4375 C 78.195312 252.070312 79.175781 250.753906 80.214844 249.484375 C 81.257812 248.214844 82.359375 246.996094 83.523438 245.835938 C 84.683594 244.675781 85.898438 243.574219 87.167969 242.53125 C 88.4375 241.488281 89.757812 240.511719 91.121094 239.597656 C 92.488281 238.683594 93.894531 237.839844 95.34375 237.066406 C 96.792969 236.292969 98.277344 235.589844 99.792969 234.960938 C 101.3125 234.335938 102.855469 233.78125 104.429688 233.304688 C 106 232.828125 107.59375 232.429688 109.203125 232.109375 C 110.816406 231.789062 112.4375 231.546875 114.074219 231.386719 C 115.707031 231.226562 117.347656 231.144531 118.988281 231.144531 L 272.074219 231.144531 L 290.234375 158.515625 C 290.363281 157.988281 290.53125 157.480469 290.742188 156.984375 C 290.957031 156.488281 291.207031 156.011719 291.492188 155.554688 C 291.78125 155.097656 292.105469 154.667969 292.460938 154.265625 C 292.820312 153.859375 293.207031 153.488281 293.625 153.144531 C 294.042969 152.804688 294.484375 152.496094 294.953125 152.226562 C 295.421875 151.957031 295.90625 151.726562 296.410156 151.535156 C 296.914062 151.34375 297.433594 151.195312 297.960938 151.085938 C 298.488281 150.976562 299.023438 150.910156 299.5625 150.890625 L 460.070312 150.890625 C 460.640625 150.875 461.207031 150.90625 461.769531 150.984375 C 462.332031 151.0625 462.886719 151.191406 463.429688 151.363281 C 463.96875 151.539062 464.492188 151.757812 464.996094 152.019531 C 465.503906 152.28125 465.980469 152.585938 466.433594 152.929688 C 466.886719 153.273438 467.308594 153.65625 467.695312 154.070312 C 468.085938 154.488281 468.433594 154.933594 468.746094 155.40625 C 469.058594 155.882812 469.332031 156.382812 469.558594 156.902344 C 469.785156 157.425781 469.96875 157.960938 470.105469 158.515625 L 487.960938 231.144531 L 640.644531 231.144531 C 642.289062 231.144531 643.925781 231.226562 645.5625 231.386719 C 647.195312 231.546875 648.820312 231.789062 650.429688 232.109375 C 652.042969 232.429688 653.632812 232.828125 655.207031 233.304688 C 656.777344 233.78125 658.324219 234.332031 659.839844 234.960938 C 661.359375 235.589844 662.839844 236.292969 664.289062 237.066406 C 665.738281 237.839844 667.144531 238.683594 668.511719 239.597656 C 669.878906 240.511719 671.195312 241.488281 672.464844 242.53125 C 673.734375 243.574219 674.953125 244.675781 676.113281 245.835938 C 677.273438 246.996094 678.375 248.214844 679.417969 249.484375 C 680.460938 250.753906 681.4375 252.070312 682.351562 253.4375 C 683.265625 254.800781 684.105469 256.210938 684.882812 257.660156 C 685.65625 259.109375 686.359375 260.589844 686.984375 262.109375 C 687.613281 263.625 688.167969 265.171875 688.644531 266.742188 C 689.121094 268.316406 689.519531 269.90625 689.839844 271.519531 C 690.160156 273.128906 690.402344 274.753906 690.5625 276.386719 C 690.722656 278.023438 690.804688 279.660156 690.804688 281.304688 L 690.804688 542.132812 C 690.804688 543.773438 690.722656 545.414062 690.5625 547.046875 C 690.402344 548.683594 690.160156 550.304688 689.839844 551.917969 C 689.519531 553.527344 689.121094 555.121094 688.644531 556.691406 C 688.167969 558.265625 687.613281 559.808594 686.984375 561.328125 C 686.359375 562.84375 685.65625 564.328125 684.882812 565.777344 C 684.105469 567.226562 683.265625 568.632812 682.351562 570 C 681.4375 571.363281 680.460938 572.683594 679.417969 573.953125 C 678.375 575.222656 677.273438 576.4375 676.113281 577.597656 C 674.953125 578.761719 673.734375 579.863281 672.464844 580.90625 C 671.195312 581.945312 669.878906 582.925781 668.511719 583.835938 C 667.144531 584.75 665.738281 585.59375 664.289062 586.367188 C 662.839844 587.140625 661.359375 587.84375 659.839844 588.472656 C 658.324219 589.101562 656.777344 589.652344 655.207031 590.128906 C 653.632812 590.609375 652.042969 591.007812 650.429688 591.328125 C 648.820312 591.648438 647.195312 591.886719 645.5625 592.050781 C 643.925781 592.210938 642.289062 592.289062 640.644531 592.289062 Z M 118.988281 251.207031 C 118.003906 251.207031 117.019531 251.257812 116.039062 251.351562 C 115.058594 251.449219 114.085938 251.59375 113.117188 251.785156 C 112.152344 251.980469 111.195312 252.21875 110.253906 252.503906 C 109.308594 252.789062 108.382812 253.121094 107.472656 253.5 C 106.5625 253.875 105.671875 254.296875 104.804688 254.761719 C 103.933594 255.226562 103.089844 255.734375 102.269531 256.28125 C 101.449219 256.828125 100.660156 257.414062 99.898438 258.039062 C 99.136719 258.664062 98.40625 259.324219 97.707031 260.023438 C 97.011719 260.71875 96.351562 261.449219 95.726562 262.210938 C 95.101562 262.972656 94.515625 263.765625 93.964844 264.582031 C 93.417969 265.402344 92.914062 266.246094 92.449219 267.117188 C 91.984375 267.984375 91.5625 268.875 91.183594 269.785156 C 90.808594 270.699219 90.476562 271.625 90.191406 272.566406 C 89.902344 273.511719 89.664062 274.464844 89.472656 275.433594 C 89.28125 276.398438 89.136719 277.371094 89.039062 278.355469 C 88.941406 279.335938 88.894531 280.316406 88.894531 281.304688 L 88.894531 542.132812 C 88.894531 543.117188 88.941406 544.101562 89.039062 545.082031 C 89.136719 546.0625 89.28125 547.035156 89.472656 548.003906 C 89.664062 548.96875 89.902344 549.925781 90.191406 550.867188 C 90.476562 551.8125 90.808594 552.738281 91.183594 553.648438 C 91.5625 554.558594 91.984375 555.449219 92.449219 556.316406 C 92.914062 557.1875 93.417969 558.03125 93.964844 558.851562 C 94.515625 559.671875 95.101562 560.460938 95.726562 561.222656 C 96.351562 561.984375 97.011719 562.714844 97.707031 563.414062 C 98.40625 564.109375 99.136719 564.769531 99.898438 565.394531 C 100.660156 566.019531 101.449219 566.605469 102.269531 567.15625 C 103.089844 567.703125 103.933594 568.207031 104.804688 568.671875 C 105.671875 569.136719 106.5625 569.558594 107.472656 569.9375 C 108.382812 570.3125 109.308594 570.644531 110.253906 570.929688 C 111.195312 571.21875 112.152344 571.457031 113.117188 571.648438 C 114.085938 571.839844 115.058594 571.984375 116.039062 572.082031 C 117.019531 572.179688 118.003906 572.226562 118.988281 572.226562 L 640.644531 572.226562 C 641.628906 572.226562 642.613281 572.179688 643.59375 572.082031 C 644.574219 571.984375 645.550781 571.839844 646.515625 571.648438 C 647.484375 571.457031 648.4375 571.21875 649.382812 570.929688 C 650.324219 570.644531 651.25 570.3125 652.164062 569.9375 C 653.074219 569.558594 653.960938 569.136719 654.832031 568.671875 C 655.703125 568.207031 656.546875 567.703125 657.367188 567.15625 C 658.183594 566.605469 658.976562 566.019531 659.738281 565.394531 C 660.5 564.769531 661.230469 564.109375 661.925781 563.414062 C 662.621094 562.714844 663.285156 561.984375 663.910156 561.222656 C 664.535156 560.460938 665.121094 559.671875 665.667969 558.851562 C 666.214844 558.03125 666.722656 557.1875 667.1875 556.316406 C 667.652344 555.449219 668.074219 554.558594 668.449219 553.648438 C 668.828125 552.738281 669.160156 551.8125 669.445312 550.867188 C 669.730469 549.925781 669.96875 548.96875 670.164062 548.003906 C 670.355469 547.035156 670.5 546.0625 670.597656 545.082031 C 670.691406 544.101562 670.742188 543.117188 670.742188 542.132812 L 670.742188 281.304688 C 670.742188 280.316406 670.691406 279.335938 670.597656 278.355469 C 670.5 277.371094 670.355469 276.398438 670.164062 275.433594 C 669.96875 274.464844 669.730469 273.511719 669.445312 272.566406 C 669.160156 271.625 668.828125 270.699219 668.449219 269.785156 C 668.074219 268.875 667.652344 267.984375 667.1875 267.117188 C 666.722656 266.246094 666.214844 265.402344 665.667969 264.582031 C 665.121094 263.765625 664.535156 262.972656 663.910156 262.210938 C 663.285156 261.449219 662.621094 260.71875 661.925781 260.023438 C 661.230469 259.324219 660.5 258.664062 659.738281 258.039062 C 658.976562 257.414062 658.183594 256.828125 657.367188 256.28125 C 656.546875 255.734375 655.703125 255.226562 654.832031 254.761719 C 653.960938 254.296875 653.074219 253.875 652.164062 253.5 C 651.25 253.121094 650.324219 252.789062 649.382812 252.503906 C 648.4375 252.21875 647.484375 251.980469 646.515625 251.785156 C 645.550781 251.59375 644.574219 251.449219 643.59375 251.351562 C 642.613281 251.257812 641.628906 251.207031 640.644531 251.207031 L 480.136719 251.207031 C 479.566406 251.226562 479 251.191406 478.4375 251.113281 C 477.875 251.035156 477.320312 250.90625 476.78125 250.734375 C 476.238281 250.558594 475.714844 250.339844 475.210938 250.078125 C 474.707031 249.816406 474.226562 249.511719 473.773438 249.167969 C 473.320312 248.824219 472.898438 248.441406 472.511719 248.027344 C 472.125 247.613281 471.773438 247.164062 471.460938 246.691406 C 471.148438 246.214844 470.878906 245.714844 470.648438 245.195312 C 470.421875 244.671875 470.242188 244.136719 470.105469 243.585938 L 452.246094 170.953125 L 307.789062 170.953125 L 289.53125 243.585938 C 289.394531 244.136719 289.210938 244.671875 288.984375 245.195312 C 288.757812 245.714844 288.488281 246.214844 288.175781 246.691406 C 287.863281 247.164062 287.511719 247.613281 287.125 248.027344 C 286.734375 248.441406 286.3125 248.824219 285.859375 249.167969 C 285.410156 249.511719 284.929688 249.816406 284.425781 250.078125 C 283.921875 250.339844 283.398438 250.558594 282.855469 250.734375 C 282.3125 250.90625 281.761719 251.035156 281.199219 251.113281 C 280.632812 251.191406 280.066406 251.226562 279.5 251.207031 Z M 118.988281 251.207031 "/></g><path style=" stroke:none;fill-rule:nonzero;fill:#000000;fill-opacity:1;" d="M 379.816406 552.164062 C 377.519531 552.164062 375.222656 552.105469 372.925781 551.992188 C 370.628906 551.882812 368.339844 551.710938 366.050781 551.488281 C 363.765625 551.261719 361.484375 550.980469 359.210938 550.644531 C 356.9375 550.304688 354.671875 549.914062 352.417969 549.464844 C 350.164062 549.015625 347.921875 548.511719 345.691406 547.953125 C 343.460938 547.394531 341.246094 546.78125 339.046875 546.117188 C 336.847656 545.449219 334.667969 544.726562 332.503906 543.953125 C 330.339844 543.179688 328.195312 542.351562 326.070312 541.472656 C 323.949219 540.59375 321.847656 539.660156 319.769531 538.679688 C 317.691406 537.695312 315.640625 536.664062 313.613281 535.578125 C 311.585938 534.496094 309.585938 533.363281 307.613281 532.183594 C 305.640625 531 303.699219 529.769531 301.789062 528.492188 C 299.878906 527.21875 298 525.894531 296.152344 524.523438 C 294.308594 523.15625 292.496094 521.742188 290.71875 520.285156 C 288.941406 518.824219 287.203125 517.324219 285.5 515.78125 C 283.796875 514.238281 282.132812 512.652344 280.507812 511.027344 C 278.882812 509.402344 277.296875 507.738281 275.753906 506.035156 C 274.210938 504.332031 272.710938 502.59375 271.25 500.816406 C 269.792969 499.039062 268.378906 497.226562 267.011719 495.382812 C 265.640625 493.535156 264.316406 491.65625 263.042969 489.746094 C 261.765625 487.832031 260.535156 485.890625 259.351562 483.921875 C 258.171875 481.949219 257.039062 479.949219 255.957031 477.921875 C 254.871094 475.894531 253.839844 473.84375 252.855469 471.765625 C 251.875 469.6875 250.941406 467.585938 250.0625 465.464844 C 249.183594 463.339844 248.355469 461.195312 247.582031 459.03125 C 246.808594 456.867188 246.085938 454.6875 245.417969 452.488281 C 244.753906 450.289062 244.140625 448.074219 243.582031 445.84375 C 243.023438 443.613281 242.519531 441.371094 242.070312 439.117188 C 241.621094 436.863281 241.230469 434.597656 240.890625 432.324219 C 240.554688 430.050781 240.273438 427.769531 240.046875 425.484375 C 239.824219 423.195312 239.652344 420.90625 239.539062 418.609375 C 239.429688 416.3125 239.371094 414.015625 239.371094 411.71875 C 239.371094 409.417969 239.429688 407.121094 239.539062 404.828125 C 239.652344 402.53125 239.824219 400.238281 240.046875 397.953125 C 240.273438 395.664062 240.554688 393.382812 240.890625 391.109375 C 241.230469 388.835938 241.621094 386.574219 242.070312 384.316406 C 242.519531 382.0625 243.023438 379.820312 243.582031 377.59375 C 244.140625 375.363281 244.753906 373.148438 245.417969 370.949219 C 246.085938 368.75 246.808594 366.566406 247.582031 364.402344 C 248.355469 362.238281 249.183594 360.09375 250.0625 357.972656 C 250.941406 355.847656 251.875 353.746094 252.855469 351.667969 C 253.839844 349.589844 254.871094 347.539062 255.957031 345.511719 C 257.039062 343.484375 258.171875 341.484375 259.351562 339.515625 C 260.535156 337.542969 261.765625 335.601562 263.042969 333.691406 C 264.316406 331.777344 265.640625 329.898438 267.011719 328.054688 C 268.378906 326.207031 269.792969 324.398438 271.25 322.621094 C 272.710938 320.84375 274.210938 319.101562 275.753906 317.398438 C 277.296875 315.695312 278.882812 314.03125 280.507812 312.40625 C 282.132812 310.78125 283.796875 309.199219 285.5 307.652344 C 287.203125 306.109375 288.941406 304.609375 290.71875 303.152344 C 292.496094 301.695312 294.308594 300.28125 296.152344 298.910156 C 298 297.542969 299.878906 296.21875 301.789062 294.941406 C 303.699219 293.664062 305.640625 292.433594 307.613281 291.253906 C 309.585938 290.070312 311.585938 288.9375 313.613281 287.855469 C 315.640625 286.773438 317.691406 285.738281 319.769531 284.757812 C 321.847656 283.773438 323.949219 282.84375 326.070312 281.960938 C 328.195312 281.082031 330.339844 280.257812 332.503906 279.480469 C 334.667969 278.707031 336.847656 277.988281 339.046875 277.320312 C 341.246094 276.652344 343.460938 276.039062 345.691406 275.480469 C 347.921875 274.921875 350.164062 274.417969 352.417969 273.96875 C 354.671875 273.523438 356.9375 273.128906 359.210938 272.792969 C 361.484375 272.453125 363.765625 272.171875 366.050781 271.949219 C 368.339844 271.722656 370.628906 271.554688 372.925781 271.441406 C 375.222656 271.328125 377.519531 271.273438 379.816406 271.273438 C 382.117188 271.273438 384.414062 271.328125 386.707031 271.441406 C 389.003906 271.554688 391.296875 271.722656 393.582031 271.949219 C 395.871094 272.171875 398.152344 272.453125 400.425781 272.792969 C 402.699219 273.128906 404.960938 273.523438 407.21875 273.96875 C 409.472656 274.417969 411.714844 274.921875 413.941406 275.480469 C 416.171875 276.039062 418.386719 276.652344 420.585938 277.320312 C 422.785156 277.988281 424.96875 278.707031 427.132812 279.480469 C 429.296875 280.257812 431.441406 281.082031 433.5625 281.960938 C 435.6875 282.84375 437.789062 283.773438 439.867188 284.757812 C 441.945312 285.738281 443.996094 286.773438 446.023438 287.855469 C 448.050781 288.9375 450.050781 290.070312 452.019531 291.253906 C 453.992188 292.433594 455.933594 293.664062 457.84375 294.941406 C 459.757812 296.21875 461.632812 297.542969 463.480469 298.910156 C 465.328125 300.28125 467.136719 301.695312 468.914062 303.152344 C 470.691406 304.609375 472.433594 306.109375 474.136719 307.652344 C 475.839844 309.199219 477.503906 310.78125 479.128906 312.40625 C 480.753906 314.03125 482.335938 315.695312 483.878906 317.398438 C 485.425781 319.101562 486.925781 320.84375 488.382812 322.621094 C 489.839844 324.398438 491.253906 326.207031 492.625 328.054688 C 493.992188 329.898438 495.316406 331.777344 496.59375 333.691406 C 497.871094 335.601562 499.101562 337.542969 500.28125 339.515625 C 501.464844 341.484375 502.597656 343.484375 503.679688 345.511719 C 504.761719 347.539062 505.796875 349.589844 506.777344 351.667969 C 507.761719 353.746094 508.691406 355.847656 509.574219 357.972656 C 510.453125 360.09375 511.277344 362.238281 512.054688 364.402344 C 512.828125 366.566406 513.546875 368.75 514.214844 370.949219 C 514.882812 373.148438 515.496094 375.363281 516.054688 377.59375 C 516.613281 379.820312 517.117188 382.0625 517.566406 384.316406 C 518.011719 386.574219 518.40625 388.835938 518.742188 391.109375 C 519.082031 393.382812 519.363281 395.664062 519.585938 397.953125 C 519.8125 400.238281 519.980469 402.53125 520.09375 404.828125 C 520.207031 407.121094 520.261719 409.417969 520.261719 411.71875 C 520.261719 414.015625 520.207031 416.3125 520.09375 418.609375 C 519.980469 420.90625 519.8125 423.195312 519.585938 425.484375 C 519.363281 427.769531 519.082031 430.050781 518.742188 432.324219 C 518.40625 434.597656 518.011719 436.863281 517.566406 439.117188 C 517.117188 441.371094 516.613281 443.613281 516.054688 445.84375 C 515.496094 448.074219 514.882812 450.289062 514.214844 452.488281 C 513.546875 454.6875 512.828125 456.867188 512.054688 459.03125 C 511.277344 461.195312 510.453125 463.339844 509.574219 465.464844 C 508.691406 467.585938 507.761719 469.6875 506.777344 471.765625 C 505.796875 473.84375 504.761719 475.894531 503.679688 477.921875 C 502.597656 479.949219 501.464844 481.949219 500.28125 483.921875 C 499.101562 485.890625 497.871094 487.832031 496.59375 489.746094 C 495.316406 491.65625 493.992188 493.535156 492.625 495.382812 C 491.253906 497.226562 489.839844 499.039062 488.382812 500.816406 C 486.925781 502.59375 485.425781 504.332031 483.878906 506.035156 C 482.335938 507.738281 480.753906 509.402344 479.128906 511.027344 C 477.503906 512.652344 475.839844 514.238281 474.136719 515.78125 C 472.433594 517.324219 470.691406 518.824219 468.914062 520.285156 C 467.136719 521.742188 465.328125 523.15625 463.480469 524.523438 C 461.632812 525.894531 459.757812 527.21875 457.84375 528.492188 C 455.933594 529.769531 453.992188 531 452.019531 532.183594 C 450.050781 533.363281 448.050781 534.496094 446.023438 535.578125 C 443.996094 536.664062 441.945312 537.695312 439.867188 538.679688 C 437.789062 539.660156 435.6875 540.59375 433.5625 541.472656 C 431.441406 542.351562 429.296875 543.179688 427.132812 543.953125 C 424.96875 544.726562 422.785156 545.449219 420.585938 546.117188 C 418.386719 546.78125 416.171875 547.394531 413.941406 547.953125 C 411.714844 548.511719 409.472656 549.015625 407.21875 549.464844 C 404.960938 549.914062 402.699219 550.304688 400.425781 550.644531 C 398.152344 550.980469 395.871094 551.261719 393.582031 551.488281 C 391.296875 551.710938 389.003906 551.882812 386.707031 551.992188 C 384.414062 552.105469 382.117188 552.164062 379.816406 552.164062 Z M 379.816406 291.335938 C 377.847656 291.335938 375.878906 291.382812 373.910156 291.480469 C 371.941406 291.578125 369.980469 291.722656 368.019531 291.914062 C 366.058594 292.109375 364.101562 292.347656 362.152344 292.636719 C 360.203125 292.925781 358.265625 293.265625 356.332031 293.648438 C 354.398438 294.03125 352.476562 294.464844 350.566406 294.941406 C 348.65625 295.421875 346.757812 295.945312 344.871094 296.519531 C 342.988281 297.089844 341.117188 297.707031 339.261719 298.371094 C 337.40625 299.035156 335.570312 299.746094 333.75 300.5 C 331.929688 301.253906 330.128906 302.050781 328.347656 302.894531 C 326.566406 303.734375 324.808594 304.621094 323.070312 305.550781 C 321.332031 306.480469 319.617188 307.449219 317.929688 308.460938 C 316.238281 309.476562 314.574219 310.527344 312.9375 311.625 C 311.296875 312.71875 309.6875 313.851562 308.105469 315.027344 C 306.523438 316.199219 304.972656 317.410156 303.449219 318.660156 C 301.925781 319.910156 300.433594 321.195312 298.972656 322.519531 C 297.515625 323.84375 296.085938 325.203125 294.695312 326.59375 C 293.300781 327.988281 291.941406 329.414062 290.621094 330.875 C 289.296875 332.332031 288.011719 333.824219 286.761719 335.347656 C 285.511719 336.871094 284.300781 338.421875 283.125 340.007812 C 281.953125 341.589844 280.816406 343.199219 279.722656 344.835938 C 278.628906 346.476562 277.574219 348.140625 276.5625 349.828125 C 275.550781 351.519531 274.578125 353.230469 273.648438 354.96875 C 272.722656 356.707031 271.835938 358.464844 270.992188 360.246094 C 270.152344 362.027344 269.351562 363.828125 268.597656 365.648438 C 267.84375 367.46875 267.136719 369.308594 266.472656 371.160156 C 265.808594 373.015625 265.191406 374.886719 264.617188 376.773438 C 264.046875 378.65625 263.523438 380.554688 263.042969 382.46875 C 262.5625 384.378906 262.132812 386.300781 261.75 388.230469 C 261.363281 390.164062 261.027344 392.105469 260.738281 394.054688 C 260.449219 396.003906 260.207031 397.957031 260.015625 399.917969 C 259.820312 401.878906 259.675781 403.84375 259.582031 405.8125 C 259.484375 407.777344 259.433594 409.746094 259.433594 411.71875 C 259.433594 413.6875 259.484375 415.65625 259.582031 417.625 C 259.675781 419.59375 259.820312 421.554688 260.015625 423.515625 C 260.207031 425.476562 260.449219 427.433594 260.738281 429.382812 C 261.027344 431.328125 261.363281 433.269531 261.75 435.203125 C 262.132812 437.136719 262.5625 439.058594 263.042969 440.96875 C 263.523438 442.878906 264.046875 444.777344 264.617188 446.664062 C 265.191406 448.546875 265.808594 450.417969 266.472656 452.273438 C 267.136719 454.128906 267.84375 455.964844 268.597656 457.785156 C 269.351562 459.605469 270.152344 461.40625 270.992188 463.1875 C 271.835938 464.96875 272.722656 466.726562 273.648438 468.464844 C 274.578125 470.203125 275.550781 471.917969 276.5625 473.605469 C 277.574219 475.296875 278.628906 476.960938 279.722656 478.597656 C 280.816406 480.238281 281.953125 481.847656 283.125 483.429688 C 284.300781 485.011719 285.511719 486.5625 286.761719 488.085938 C 288.011719 489.609375 289.296875 491.101562 290.621094 492.5625 C 291.941406 494.019531 293.300781 495.449219 294.695312 496.839844 C 296.085938 498.234375 297.515625 499.589844 298.972656 500.914062 C 300.433594 502.238281 301.925781 503.523438 303.449219 504.773438 C 304.972656 506.023438 306.523438 507.234375 308.105469 508.410156 C 309.6875 509.582031 311.296875 510.71875 312.9375 511.8125 C 314.574219 512.90625 316.238281 513.960938 317.929688 514.972656 C 319.617188 515.984375 321.332031 516.957031 323.070312 517.886719 C 324.808594 518.8125 326.566406 519.699219 328.347656 520.542969 C 330.128906 521.382812 331.929688 522.183594 333.75 522.9375 C 335.570312 523.691406 337.40625 524.398438 339.261719 525.0625 C 341.117188 525.726562 342.988281 526.34375 344.871094 526.914062 C 346.757812 527.488281 348.65625 528.011719 350.566406 528.492188 C 352.476562 528.96875 354.398438 529.402344 356.332031 529.785156 C 358.265625 530.171875 360.203125 530.507812 362.152344 530.796875 C 364.101562 531.085938 366.058594 531.328125 368.019531 531.519531 C 369.980469 531.714844 371.941406 531.859375 373.910156 531.953125 C 375.878906 532.050781 377.847656 532.097656 379.816406 532.097656 C 381.789062 532.097656 383.757812 532.050781 385.722656 531.953125 C 387.691406 531.859375 389.65625 531.714844 391.617188 531.519531 C 393.578125 531.328125 395.53125 531.085938 397.480469 530.796875 C 399.429688 530.507812 401.371094 530.171875 403.304688 529.785156 C 405.234375 529.402344 407.15625 528.96875 409.066406 528.492188 C 410.980469 528.011719 412.878906 527.488281 414.761719 526.914062 C 416.648438 526.34375 418.519531 525.726562 420.371094 525.0625 C 422.226562 524.398438 424.066406 523.691406 425.886719 522.9375 C 427.707031 522.183594 429.507812 521.382812 431.289062 520.542969 C 433.066406 519.699219 434.828125 518.8125 436.566406 517.886719 C 438.300781 516.957031 440.015625 515.984375 441.707031 514.972656 C 443.394531 513.960938 445.058594 512.90625 446.699219 511.8125 C 448.335938 510.71875 449.945312 509.582031 451.527344 508.410156 C 453.109375 507.234375 454.664062 506.023438 456.1875 504.773438 C 457.710938 503.523438 459.203125 502.238281 460.660156 500.914062 C 462.121094 499.589844 463.546875 498.234375 464.941406 496.839844 C 466.332031 495.449219 467.691406 494.019531 469.015625 492.5625 C 470.335938 491.101562 471.625 489.609375 472.875 488.085938 C 474.125 486.5625 475.335938 485.011719 476.507812 483.429688 C 477.683594 481.847656 478.816406 480.238281 479.910156 478.597656 C 481.007812 476.960938 482.058594 475.296875 483.074219 473.605469 C 484.085938 471.917969 485.054688 470.203125 485.984375 468.464844 C 486.914062 466.726562 487.800781 464.96875 488.640625 463.1875 C 489.484375 461.40625 490.28125 459.605469 491.035156 457.785156 C 491.789062 455.964844 492.5 454.128906 493.164062 452.273438 C 493.824219 450.417969 494.445312 448.546875 495.015625 446.664062 C 495.585938 444.777344 496.113281 442.878906 496.589844 440.96875 C 497.070312 439.058594 497.503906 437.136719 497.886719 435.203125 C 498.269531 433.269531 498.605469 431.328125 498.894531 429.382812 C 499.1875 427.433594 499.425781 425.476562 499.621094 423.515625 C 499.8125 421.554688 499.957031 419.59375 500.054688 417.625 C 500.152344 415.65625 500.199219 413.6875 500.199219 411.71875 C 500.199219 409.746094 500.152344 407.777344 500.054688 405.8125 C 499.957031 403.84375 499.8125 401.878906 499.621094 399.917969 C 499.425781 397.957031 499.1875 396.003906 498.898438 394.054688 C 498.605469 392.105469 498.269531 390.164062 497.886719 388.230469 C 497.503906 386.300781 497.070312 384.378906 496.589844 382.46875 C 496.113281 380.554688 495.585938 378.65625 495.015625 376.773438 C 494.445312 374.886719 493.824219 373.015625 493.164062 371.160156 C 492.5 369.308594 491.789062 367.46875 491.035156 365.648438 C 490.28125 363.828125 489.484375 362.027344 488.640625 360.246094 C 487.800781 358.464844 486.914062 356.707031 485.984375 354.96875 C 485.054688 353.230469 484.085938 351.519531 483.074219 349.828125 C 482.058594 348.140625 481.007812 346.476562 479.910156 344.835938 C 478.816406 343.199219 477.683594 341.589844 476.507812 340.007812 C 475.335938 338.421875 474.125 336.871094 472.875 335.347656 C 471.625 333.824219 470.335938 332.332031 469.015625 330.875 C 467.691406 329.414062 466.332031 327.988281 464.941406 326.59375 C 463.546875 325.203125 462.121094 323.84375 460.660156 322.519531 C 459.203125 321.195312 457.710938 319.910156 456.1875 318.660156 C 454.664062 317.410156 453.109375 316.199219 451.527344 315.027344 C 449.945312 313.851562 448.335938 312.71875 446.699219 311.625 C 445.058594 310.527344 443.394531 309.476562 441.707031 308.460938 C 440.015625 307.449219 438.300781 306.480469 436.566406 305.550781 C 434.828125 304.621094 433.066406 303.734375 431.289062 302.894531 C 429.507812 302.050781 427.707031 301.253906 425.886719 300.5 C 424.066406 299.746094 422.226562 299.035156 420.371094 298.371094 C 418.519531 297.707031 416.648438 297.089844 414.761719 296.519531 C 412.878906 295.945312 410.980469 295.421875 409.066406 294.941406 C 407.15625 294.464844 405.234375 294.03125 403.304688 293.648438 C 401.371094 293.265625 399.429688 292.925781 397.480469 292.636719 C 395.53125 292.347656 393.578125 292.109375 391.617188 291.914062 C 389.65625 291.722656 387.691406 291.578125 385.722656 291.480469 C 383.757812 291.382812 381.789062 291.335938 379.816406 291.335938 Z M 379.816406 291.335938 "/><path style=" stroke:none;fill-rule:nonzero;fill:#000000;fill-opacity:1;" d="M 209.277344 251.207031 L 149.085938 251.207031 C 148.425781 251.207031 147.773438 251.144531 147.128906 251.015625 C 146.480469 250.886719 145.855469 250.695312 145.246094 250.445312 C 144.636719 250.191406 144.058594 249.882812 143.511719 249.515625 C 142.964844 249.152344 142.457031 248.734375 141.992188 248.269531 C 141.527344 247.804688 141.109375 247.296875 140.742188 246.75 C 140.378906 246.203125 140.070312 245.625 139.816406 245.015625 C 139.566406 244.40625 139.375 243.78125 139.246094 243.132812 C 139.117188 242.488281 139.054688 241.835938 139.054688 241.175781 L 139.054688 211.082031 C 139.054688 210.421875 139.117188 209.769531 139.246094 209.125 C 139.375 208.476562 139.566406 207.851562 139.816406 207.242188 C 140.070312 206.632812 140.378906 206.054688 140.742188 205.507812 C 141.109375 204.960938 141.527344 204.453125 141.992188 203.988281 C 142.457031 203.523438 142.964844 203.105469 143.511719 202.738281 C 144.058594 202.375 144.636719 202.066406 145.246094 201.8125 C 145.855469 201.5625 146.480469 201.371094 147.128906 201.242188 C 147.773438 201.113281 148.425781 201.050781 149.085938 201.050781 L 209.277344 201.050781 C 209.933594 201.050781 210.585938 201.113281 211.234375 201.242188 C 211.878906 201.371094 212.507812 201.5625 213.113281 201.8125 C 213.722656 202.066406 214.300781 202.375 214.847656 202.738281 C 215.398438 203.105469 215.902344 203.519531 216.371094 203.988281 C 216.835938 204.453125 217.25 204.960938 217.617188 205.507812 C 217.984375 206.054688 218.292969 206.632812 218.542969 207.242188 C 218.796875 207.851562 218.988281 208.476562 219.117188 209.125 C 219.242188 209.769531 219.308594 210.421875 219.308594 211.082031 L 219.308594 241.175781 C 219.308594 241.835938 219.242188 242.488281 219.117188 243.132812 C 218.988281 243.78125 218.796875 244.40625 218.542969 245.015625 C 218.292969 245.625 217.984375 246.203125 217.617188 246.75 C 217.25 247.296875 216.835938 247.804688 216.371094 248.269531 C 215.902344 248.734375 215.398438 249.152344 214.847656 249.515625 C 214.300781 249.882812 213.722656 250.191406 213.113281 250.445312 C 212.507812 250.695312 211.878906 250.886719 211.234375 251.015625 C 210.585938 251.144531 209.933594 251.207031 209.277344 251.207031 Z M 159.117188 231.144531 L 199.246094 231.144531 L 199.246094 221.113281 L 159.117188 221.113281 Z M 159.117188 231.144531 "/><path style=" stroke:none;fill-rule:nonzero;fill:#000000;fill-opacity:1;" d="M 620.582031 251.207031 L 540.328125 251.207031 C 539.667969 251.207031 539.015625 251.144531 538.371094 251.015625 C 537.722656 250.886719 537.097656 250.695312 536.488281 250.445312 C 535.878906 250.191406 535.300781 249.882812 534.753906 249.515625 C 534.207031 249.152344 533.699219 248.734375 533.234375 248.269531 C 532.765625 247.804688 532.351562 247.296875 531.984375 246.75 C 531.621094 246.203125 531.3125 245.625 531.058594 245.015625 C 530.804688 244.40625 530.617188 243.78125 530.488281 243.132812 C 530.359375 242.488281 530.296875 241.835938 530.296875 241.175781 L 530.296875 211.082031 C 530.296875 210.421875 530.359375 209.769531 530.488281 209.125 C 530.617188 208.476562 530.804688 207.851562 531.058594 207.242188 C 531.3125 206.632812 531.621094 206.054688 531.984375 205.507812 C 532.351562 204.960938 532.765625 204.453125 533.234375 203.988281 C 533.699219 203.523438 534.207031 203.105469 534.753906 202.738281 C 535.300781 202.375 535.878906 202.066406 536.488281 201.8125 C 537.097656 201.5625 537.722656 201.371094 538.371094 201.242188 C 539.015625 201.113281 539.667969 201.050781 540.328125 201.050781 L 620.582031 201.050781 C 621.238281 201.050781 621.890625 201.113281 622.539062 201.242188 C 623.183594 201.371094 623.8125 201.5625 624.421875 201.8125 C 625.027344 202.066406 625.605469 202.375 626.15625 202.738281 C 626.703125 203.105469 627.210938 203.519531 627.675781 203.988281 C 628.140625 204.453125 628.558594 204.960938 628.921875 205.507812 C 629.289062 206.054688 629.597656 206.632812 629.851562 207.242188 C 630.101562 207.851562 630.292969 208.476562 630.421875 209.125 C 630.550781 209.769531 630.613281 210.421875 630.613281 211.082031 L 630.613281 241.175781 C 630.613281 241.835938 630.550781 242.488281 630.421875 243.132812 C 630.292969 243.78125 630.101562 244.40625 629.851562 245.015625 C 629.597656 245.625 629.289062 246.203125 628.921875 246.75 C 628.558594 247.296875 628.140625 247.804688 627.675781 248.269531 C 627.210938 248.734375 626.703125 249.152344 626.15625 249.515625 C 625.605469 249.882812 625.027344 250.191406 624.421875 250.445312 C 623.8125 250.695312 623.183594 250.886719 622.539062 251.015625 C 621.890625 251.144531 621.238281 251.207031 620.582031 251.207031 Z M 550.359375 231.144531 L 610.550781 231.144531 L 610.550781 221.113281 L 550.359375 221.113281 Z M 550.359375 231.144531 "/><path style=" stroke:none;fill-rule:nonzero;fill:#000000;fill-opacity:1;" d="M 550.359375 281.304688 L 630.613281 281.304688 L 630.613281 301.367188 L 550.359375 301.367188 Z M 550.359375 281.304688 "/></g></svg>